<svg viewBox="0 0 735 247" xmlns="http://www.w3.org/2000/svg">
              <path d="M285.72 139.1v.2c0 11.6-9.6 19.8-23.4 19.8-10.2 0-18.7-3.3-26.7-10.4-.48-.4-.775-.982-.813-1.607-.038-.625.184-1.237.613-1.693l4.3-5.1c.413-.514 1.04-.81 1.7-.8.65 0 1.28.21 1.8.6 6.3 5.7 12 8.1 19.5 8.1 6.8 0 11.3-3.2 11.3-8.1v-.2c0-3.6-1-6.6-14.1-9.3-13.5-2.9-22.5-7.5-22.5-20.1v-.3c0-11.1 9.5-19.1 22.6-19.1 8.436-.243 16.663 2.642 23.1 8.1 1.012.806 1.19 2.275.4 3.3l-4 5.4c-.377.519-.961.847-1.6.9-.643.086-1.293-.095-1.8-.5-4.477-3.938-10.237-6.107-16.2-6.1-6.3 0-10.7 3.1-10.7 7.5v.2c0 3.6 1.1 6.7 14.8 9.6 19.3 4.1 21.7 12.6 21.7 19.6zm83.5-47.2h-48.3c-1.319.016-2.384 1.081-2.4 2.4v6.4c.016 1.319 1.081 2.384 2.4 2.4h18.2v52.6c.016 1.319 1.081 2.384 2.4 2.4h7c1.319-.016 2.384-1.081 2.4-2.4v-52.6h18.2c1.319-.016 2.384-1.081 2.4-2.4v-6.4c.049-.633-.174-1.256-.613-1.714-.44-.458-1.053-.708-1.687-.686zm92 62.8c.335.75.259 1.62-.2 2.3-.442.676-1.192 1.089-2 1.1h-7.5c-.933-.034-1.774-.57-2.2-1.4l-6.6-14.8h-30.3l-6.6 14.8c-.372.877-1.247 1.434-2.2 1.4h-7.1c-.814.011-1.574-.407-2-1.1-.415-.696-.488-1.543-.2-2.3l28-61.9c.372-.877 1.247-1.434 2.2-1.4H431c.933.034 1.774.57 2.2 1.4l28.02 61.9zm-23.3-23.8l-10.3-23.1-10.3 23.1h20.6zm112.5 23.4c.512.736.589 1.691.2 2.5-.394.8-1.209 1.304-2.1 1.3H540c-.755-.019-1.457-.389-1.9-1L521 134.2h-14v21.5c-.016 1.319-1.081 2.384-2.4 2.4h-6.9c-1.319-.016-2.384-1.081-2.4-2.4V94.3c.016-1.319 1.081-2.384 2.4-2.4h26.4c7.9 0 14.7 2.4 19.1 6.8 3.57 3.695 5.514 8.664 5.4 13.8v.2c0 9.4-5.4 16.4-15 19.4l16.82 22.2zm-26.9-31.1c8.1 0 13.4-4 13.4-10.2v-.2c0-6.2-4.9-9.7-13.3-9.7H507v20.1h16.52zM643 154.3c.512.736.589 1.691.2 2.5-.394.8-1.209 1.304-2.1 1.3h-8.5c-.755-.019-1.457-.389-1.9-1l-17.1-22.9h-14v21.5c-.016 1.319-1.081 2.384-2.4 2.4h-6.9c-1.319-.016-2.384-1.081-2.4-2.4V94.3c.016-1.319 1.081-2.384 2.4-2.4h26.4c7.9 0 14.7 2.4 19.1 6.8 3.57 3.695 5.514 8.664 5.4 13.8v.2c0 9.4-5.4 16.4-15 19.4l16.8 22.2zm-26.9-31.1c8.1 0 13.4-4 13.4-10.2v-.2c0-6.2-4.9-9.7-13.3-9.7h-16.6v20.1h16.5zm118.5-30c-.394-.8-1.209-1.304-2.1-1.3h-8.1c-.783.016-1.517.384-2 1l-18.9 27.8-18.7-27.8c-.426-.693-1.186-1.111-2-1.1h-8.4c-.891-.004-1.706.5-2.1 1.3-.418.79-.38 1.745.1 2.5l25.1 36.5v23.6c.016 1.319 1.081 2.384 2.4 2.4h7c1.319-.016 2.384-1.081 2.4-2.4v-23.6l25.1-36.4c.564-.715.65-1.697.22-2.5h-.02zm-560-47.4h-59.8l21.3-36.9c2.8-4.9.5-8.9-5.1-8.9H14.72c-5.6 0-8 4-5.1 8.9l58.2 100.7c2.8 4.9 7.4 4.9 10.3 0l19.7-34.1 29.9 51.8c2.4 4.1 6.2 4.1 8.6 0l42.8-74.1c2.1-4 .2-7.4-4.5-7.4h-.02zM58.92 130.3H4.22c-3.8 0-5.3 2.7-3.4 5.9l27.4 47.4c1.9 3.3 5 3.3 6.8 0l27.4-47.4c1.8-3.3.2-5.9-3.5-5.9zm26.6 76.4h-37.4c-3.3 0-4.6 2.3-3 5.2l18.7 32.4c1.6 2.9 4.3 2.9 6 0l18.7-32.4c1.7-2.9.3-5.2-3-5.2zm82.3-61.3h-25.7c-2.4 0-3.3 1.7-2.1 3.7l12.8 22.2c1.2 2 3.1 2 4.3 0l12.8-22.2c1.2-2.1.2-3.7-2.1-3.7z" fill="#3c3c57" fill-rule="evenodd" stroke="none" stroke-width="1px"></path>
            </svg>
